{"title":"Hum Dil De Chuke Sanam ( 1999) Hindi DvD - 2CD - Rip - Xvid - By","uid":5928462,"size":1465683502,"categoryP":"video","categoryS":"movies","magnet":"?xt=urn:btih:4e6daed44a0d64e258c5409719b108b0366aff6b&amp;dn=Hum+Dil+De+Chuke+Sanam+%28+1999%29+Hindi+DvD+-+2CD+-+Rip+-+Xvid+-+By&amp;tr=udp%3A%2F%2Ftracker.openbittorrent.com%3A80&amp;tr=udp%3A%2F%2Fopen.demonii.com%3A1337&amp;tr=udp%3A%2F%2Ftracker.coppersurfer.tk%3A6969&amp;tr=udp%3A%2F%2Fexodus.desync.com%3A6969","seeders":1,"leechers":0,"uploader":"amanrulz","files":1,"time":1288685421,"description":"mastitorrents.com\n &lt;a href=&quot;\nhttp://mastitorrents.com/forums/index.php&quot; rel=&quot;nofollow&quot; target=&quot;_NEW&quot;&gt;\nhttp://mastitorrents.com/forums/index.php&lt;/a&gt;\n\nGeneral\nRipper : Rahul\nComplete name : Hum Dil De Chuke Sanam ( 1999)\nFormat : AVI\nFormat/Info : Audio Video Interleave\nFile size : 1.37 GiB\nDuration : 3h 6mn\nOverall bit rate : 1 045 Kbps\nWriting application : VirtualDubMod 1.5.10.2 (build 2540/release)\nWriting library : VirtualDub build 32839/release\n\nVideo\nID : 0\nFormat : MPEG-4 Visual\nFormat profile : Advanced Simple@L5\nFormat settings, BVOP : Yes\nFormat settings, QPel : No\nFormat settings, GMC : No warppoints\nFormat settings, Matrix : Default (H.263)\nMuxing mode : Packed bitstream\nCodec ID : XVID\nCodec ID/Hint : XviD\nDuration : 3h 6mn\nBit rate : 904 Kbps\nWidth : 640 pixels\nHeight : 304 pixels\nDisplay aspect ratio : 2.2:1\nFrame rate : 29.970 fps\nColor space : YUV\nChroma subsampling : 4:2:0\nBit depth : 8 bits\nScan type : Progressive\nBits/(Pixel*Frame) : 0.155\nStream size : 1.18 GiB (86%)\nWriting library : XviD 1.0.3 (UTC 2004-12-20)\n\nAudio\nID : 1\nFormat : MPEG Audio\nFormat version : Version 1\nFormat profile : Layer 3\nMode : Joint stereo\nMode extension : MS Stereo\nCodec ID : 55\nCodec ID/Hint : MP3\nDuration : 3h 6mn\nBit rate mode : Variable\nBit rate : 128 Kbps\nChannel(s) : 2 channels\nSampling rate : 48.0 KHz\nStream size : 170 MiB (12%)\nAlignment : Aligned on interleaves\nInterleave, duration : 24 ms (0.72 video frame)\nInterleave, preload duration : 480 ms\nWriting library : LAME3.90.","torrent":{"xt":"urn:btih:4e6daed44a0d64e258c5409719b108b0366aff6b","amp;dn":"Hum+Dil+De+Chuke+Sanam+%28+1999%29+Hindi+DvD+-+2CD+-+Rip+-+Xvid+-+By","amp;tr":["udp%3A%2F%2Ftracker.openbittorrent.com%3A80","udp%3A%2F%2Fopen.demonii.com%3A1337","udp%3A%2F%2Ftracker.coppersurfer.tk%3A6969","udp%3A%2F%2Fexodus.desync.com%3A6969"],"infoHash":"4e6daed44a0d64e258c5409719b108b0366aff6b","infoHashBuffer":{"type":"Buffer","data":[78,109,174,212,74,13,100,226,88,197,64,151,25,177,8,176,54,106,255,107]},"announce":[],"urlList":[]}}